<svg width="26" height="24" viewBox="0 0 26 24" fill="none" xmlns="http://www.w3.org/2000/svg">
<path d="M20.5384 2.08335C18.8692 1.11794 17.0311 0.454513 15.1549 0.162035C15.1549 0.162035 15.1525 0.162035 15.1502 0.162035C14.7031 0.0930772 14.2537 0.0431419 13.8043 0.0146075C13.809 0.0193632 13.8162 0.0264968 13.8209 0.0312526C12.5036 -0.0472171 10.4753 -0.0234384 9.00099 0.651877C8.35897 0.865885 7.6789 1.14885 6.99645 1.52218C5.09653 2.59222 3.37733 4.25197 2.01719 6.60844C-2.03708 13.6327 0.504864 19.0899 5.37236 21.9005C11.3598 25.3579 19.4922 24.9989 23.8936 17.3754C27.9502 10.3536 25.4083 4.894 20.5384 2.08335ZM18.289 13.3283H15.0788V21.2823C14.004 21.5058 12.9031 21.551 11.8093 21.4392V13.3283H9.53839V10.2371H11.8093C11.8093 10.2371 11.8093 8.96967 11.8093 7.59526C11.8093 5.51938 13.1504 3.6147 16.2416 3.6147C17.4924 3.6147 18.4174 3.7336 18.4174 3.7336L18.3436 6.62033C18.3436 6.62033 17.3996 6.61082 16.37 6.61082C15.2548 6.61082 15.0765 7.12444 15.0765 7.97809V10.2347H18.4316L18.289 13.3283Z" fill="white"/>
</svg>
