<svg width="26" height="24" viewBox="0 0 26 24" fill="none" xmlns="http://www.w3.org/2000/svg">
<path d="M19.308 7.26944C19.1629 6.89612 18.9893 6.62742 18.7088 6.34683C18.4282 6.06624 18.1618 5.89265 17.7861 5.7476C17.5032 5.63822 17.0775 5.50744 16.2976 5.47177C15.4511 5.43373 15.199 5.42421 13.0566 5.42421C10.9141 5.42421 10.6597 5.43135 9.81552 5.47177C9.0332 5.50744 8.60756 5.63822 8.32697 5.7476C7.95365 5.89265 7.68495 6.06624 7.40436 6.34683C7.12377 6.62742 6.95019 6.89374 6.80514 7.26944C6.69576 7.55241 6.56497 7.97805 6.5293 8.75799C6.49126 9.60451 6.48175 9.85656 6.48175 11.999C6.48175 14.1415 6.48888 14.3959 6.5293 15.2401C6.56497 16.0224 6.69576 16.448 6.80514 16.7286C6.95019 17.1019 7.12377 17.3706 7.40436 17.6512C7.68495 17.9318 7.95127 18.1054 8.32697 18.2504C8.60994 18.3598 9.03558 18.4906 9.81552 18.5263C10.662 18.5643 10.9141 18.5738 13.0566 18.5738C15.199 18.5738 15.4535 18.5667 16.2976 18.5263C17.0799 18.4906 17.5056 18.3598 17.7861 18.2504C18.1595 18.1054 18.4282 17.9318 18.7088 17.6512C18.9893 17.3706 19.1629 17.1043 19.308 16.7286C19.4174 16.4456 19.5481 16.02 19.5838 15.2401C19.6219 14.3935 19.6314 14.1415 19.6314 11.999C19.6314 9.85656 19.6242 9.60213 19.5838 8.75799C19.5481 7.97567 19.4174 7.55241 19.308 7.26944ZM13.0542 16.1199C10.7786 16.1199 8.93571 14.2746 8.93571 12.0014C8.93571 9.72578 10.7809 7.88293 13.0542 7.88293C15.3298 7.88293 17.1727 9.72816 17.1727 12.0014C17.175 14.2746 15.3298 16.1199 13.0542 16.1199ZM17.3367 8.67952C16.8041 8.67952 16.3737 8.24912 16.3737 7.71648C16.3737 7.18384 16.8041 6.75344 17.3367 6.75344C17.8694 6.75344 18.2998 7.18384 18.2998 7.71648C18.2998 8.24912 17.8694 8.67952 17.3367 8.67952Z" fill="white"/>
<path d="M13.6687 14.6014C15.1065 14.2619 15.9968 12.8211 15.6573 11.3832C15.3178 9.94542 13.877 9.05506 12.4392 9.39457C11.0014 9.73408 10.111 11.1749 10.4505 12.6127C10.79 14.0505 12.2308 14.9409 13.6687 14.6014Z" fill="white"/>
<path d="M20.5374 2.08335C18.8682 1.11794 17.0301 0.454513 15.1539 0.162035C15.1539 0.162035 15.1516 0.162035 15.1492 0.162035C14.7022 0.0930772 14.2527 0.0431419 13.8033 0.0146075C13.8081 0.0193632 13.8152 0.0264968 13.82 0.0312526C12.5026 -0.0472171 10.4743 -0.0234384 9.00002 0.651877C8.35799 0.865885 7.67792 1.14885 6.99547 1.52218C5.09555 2.59222 3.37635 4.25197 2.01621 6.60844C-2.03806 13.6327 0.503887 19.0899 5.37139 21.9005C11.3589 25.3579 19.4912 24.9989 23.8926 17.3754C27.9493 10.3536 25.4073 4.894 20.5374 2.08335ZM21.0297 15.3067C20.9916 16.1603 20.8561 16.7429 20.6563 17.2542C20.4518 17.7821 20.176 18.2291 19.7313 18.6761C19.2843 19.1232 18.8373 19.3966 18.3094 19.6011C17.7981 19.7985 17.2156 19.934 16.3619 19.9744C15.5059 20.0125 15.2324 20.022 13.0543 20.022C10.8762 20.022 10.6027 20.0125 9.74667 19.9744C8.89301 19.9364 8.31043 19.8009 7.79919 19.6011C7.27131 19.3966 6.82427 19.1208 6.37723 18.6761C5.93019 18.2291 5.65673 17.7821 5.45223 17.2542C5.25487 16.7429 5.11933 16.1603 5.07891 15.3067C5.04086 14.4507 5.03135 14.1772 5.03135 11.9991C5.03135 9.82094 5.04086 9.54749 5.07891 8.69145C5.11696 7.8378 5.25249 7.25522 5.45223 6.74398C5.65673 6.21609 5.93256 5.76905 6.37723 5.32201C6.82427 4.87497 7.27131 4.60152 7.79919 4.39702C8.31043 4.19966 8.89301 4.06412 9.74667 4.0237C10.6027 3.98565 10.8762 3.97614 13.0543 3.97614C15.2324 3.97614 15.5059 3.98565 16.3619 4.0237C17.2156 4.06174 17.7981 4.19728 18.3094 4.39702C18.8373 4.60152 19.2843 4.87735 19.7313 5.32201C20.1784 5.76905 20.4518 6.21609 20.6563 6.74398C20.8537 7.25522 20.9892 7.8378 21.0297 8.69145C21.0677 9.54749 21.0772 9.82094 21.0772 11.9991C21.0772 14.1796 21.0677 14.453 21.0297 15.3067Z" fill="white"/>
</svg>
