<svg width="139" height="54" viewBox="0 0 139 54" fill="none" xmlns="http://www.w3.org/2000/svg">
<path d="M128.251 40.2016C121.71 36.7639 120.707 28.504 120.707 28.504L119.657 28.8382L118.988 39.4854C122.044 41.252 128.251 40.2016 128.251 40.2016Z" fill="#E2173D"/>
<path d="M135.46 20.9602L136.845 20.626C136.845 20.626 136.845 17.1883 137.179 13.0822C133.407 11.6976 128.585 12.748 128.585 12.748C133.741 14.4191 135.46 20.9602 135.46 20.9602Z" fill="#E2173D"/>
<path d="M138.898 30.2706C138.564 25.4483 132.691 24.0637 128.251 21.008C123.763 17.9045 126.866 13.0822 126.866 13.0822H126.818C126.198 13.1777 119.991 14.4191 119.657 20.626C119.657 21.6764 119.704 24.9708 127.582 28.8859C134.314 32.2281 132.07 39.1989 132.07 39.1989C135.46 38.1485 139.232 35.0451 138.898 30.2706Z" fill="#E2173D"/>
<path d="M11.7043 13.0822L11.3701 12.4138C-0.661751 14.8011 0.00668437 26.4509 0.00668437 26.4509C0.00668437 26.4509 -0.661751 38.1485 11.3701 40.5836L11.7043 39.9151C11.7043 39.9151 8.60085 38.1963 8.60085 26.4987C8.60085 14.8011 11.7043 13.0822 11.7043 13.0822Z" fill="#E2173D"/>
<path d="M100.415 13.0822L100.081 12.4138C88.0491 14.8011 88.7176 26.4987 88.7176 26.4987C88.7176 26.4987 88.0491 38.1963 100.081 40.5836L100.415 39.9151C100.415 39.9151 97.3117 38.1963 97.3117 26.4987C97.3117 14.8011 100.415 13.0822 100.415 13.0822Z" fill="#E2173D"/>
<path d="M103.137 39.8674L103.471 40.5358C115.503 38.1485 114.834 26.4509 114.834 26.4509C114.834 26.4509 115.503 14.7533 103.471 12.366L103.137 13.0345C103.137 13.0345 106.24 14.7533 106.24 26.4509C106.24 38.1485 103.137 39.8674 103.137 39.8674Z" fill="#E2173D"/>
<path d="M40.256 12.366L39.2056 11.6976C39.2056 11.6976 33.7149 13.4164 29.5611 14.0849C32.3303 17.5225 31.9483 26.4509 31.9483 26.4509C31.9483 36.0955 30.8979 40.2016 30.8979 40.2016C30.8979 40.2016 38.4417 39.8674 41.2109 40.2016C39.8263 37.8143 39.8263 26.4509 39.8263 26.4509C39.8741 23.0133 40.256 12.366 40.256 12.366Z" fill="#E2173D"/>
<path d="M70.1446 16.8541C68.2348 8.49867 58.7812 14.4668 58.7812 14.4668C61.5505 15.1353 62.5531 17.9045 62.5531 19.9576C62.5531 22.0106 62.5531 26.4987 62.5531 26.4987C62.5531 36.1432 61.5027 40.2493 61.5027 40.2493C61.5027 40.2493 69.0465 39.9151 71.8157 40.2493C70.4311 37.8621 70.4311 26.4987 70.4311 26.4987C70.4788 17.7135 70.1446 16.8541 70.1446 16.8541Z" fill="#E2173D"/>
<path d="M83.8953 16.8541C81.9855 8.49867 72.5319 14.4668 72.5319 14.4668C75.3011 15.1353 76.3038 17.9045 76.3038 19.9576C76.3038 22.0106 76.3038 26.4987 76.3038 26.4987C76.3038 36.1432 75.2534 40.2493 75.2534 40.2493C78.0226 39.9151 85.5664 40.2493 85.5664 40.2493C84.1818 37.8621 84.1818 26.4987 84.1818 26.4987C84.2295 17.7135 83.8953 16.8541 83.8953 16.8541Z" fill="#E2173D"/>
<path d="M56.394 12.366L55.3436 11.6976C55.3436 11.6976 49.8528 13.4164 45.699 14.0849C48.4682 17.5225 48.0863 26.4509 48.0863 26.4509C48.0863 36.0955 47.0359 40.2016 47.0359 40.2016C47.0359 40.2016 54.8184 39.8674 57.6831 40.2016C56.2985 37.8143 55.9642 26.4509 55.9642 26.4509C56.0597 23.0133 56.394 12.366 56.394 12.366Z" fill="#E2173D"/>
<path d="M24.4046 0.668435L23.4019 0C23.4019 0 17.9112 1.71883 13.7573 2.38727C16.5266 5.82493 16.1446 15.4695 16.1446 15.4695V26.4509C16.1924 36.0955 14.8077 40.5836 14.8077 40.5836C14.8077 40.5836 22.3515 39.5332 24.4523 39.5332C24.1181 36.0955 24.1181 26.4509 24.1181 26.4509V15.4695C24.0703 12.0318 24.4046 0.668435 24.4046 0.668435Z" fill="#E2173D"/>
<path d="M122.378 6.54111L115.837 4.15385C116.505 11.6976 113.497 14.0849 113.497 14.0849C113.927 14.5146 114.309 14.992 114.643 15.4218C115.694 14.8966 120.85 12.0796 122.378 6.54111Z" fill="#E2173D"/>
<path d="M39.8741 5.1565L35.386 0.668435C35.386 0.668435 31.9483 4.44032 30.8979 5.1565L35.386 9.64456C35.4337 9.64456 38.5372 5.82493 39.8741 5.1565Z" fill="#E2173D"/>
<path d="M108.436 43.9257C107.816 43.9257 107.243 44.1167 106.67 44.6419H106.622L106.718 44.0212C106.049 44.0212 105.285 44.069 104.617 44.2122C104.521 44.4987 104.474 44.8806 104.474 45.0716L105.381 45.1194L103.996 52.9496L103.28 53.0928C103.184 53.4271 103.137 53.8568 103.137 54H106.049C106.145 53.6658 106.192 53.2361 106.192 53.0928L105.19 52.9496L105.524 51.0398C105.954 51.2308 106.574 51.3263 107.004 51.3263C109.009 51.3263 110.251 50.1326 110.585 47.6976C110.633 47.3157 110.68 46.8859 110.68 46.5517C110.633 44.7374 109.678 43.9257 108.436 43.9257ZM109.2 47.7931C108.866 49.6074 108.102 50.1804 107.004 50.1804C106.574 50.1804 106.001 50.0849 105.619 49.8939L106.383 45.5013C106.861 45.1671 107.338 44.9761 107.911 44.9761C108.723 44.9761 109.296 45.3581 109.296 46.5517C109.344 46.9337 109.296 47.3157 109.2 47.7931Z" fill="#E2173D"/>
<path d="M114.023 43.9735C113.354 43.9735 112.542 44.0212 111.826 44.1645C111.731 44.4032 111.683 44.8329 111.683 45.0239L112.59 45.0716L111.731 50.0849L111.015 50.2281C110.919 50.5623 110.871 50.992 110.871 51.1353H113.784C113.879 50.8011 113.927 50.3714 113.927 50.2281L112.924 50.0849L113.784 45.1194L114.023 43.9735Z" fill="#E2173D"/>
<path d="M115.694 45.8355C115.885 45.8833 116.076 45.8833 116.219 45.8833C116.362 45.8833 116.553 45.8833 116.696 45.8355L117.031 45.0716H119.418L114.739 50.1326L114.691 51.183H119.895L120.229 49.4164C120.039 49.3687 119.848 49.3687 119.704 49.3687C119.561 49.3687 119.37 49.3687 119.227 49.4164L118.893 50.1804H116.219L120.898 45.1194L120.946 44.069H116.028L115.694 45.8355Z" fill="#E2173D"/>
<path d="M121.996 45.8355C122.187 45.8833 122.378 45.8833 122.521 45.8833C122.665 45.8833 122.855 45.8833 122.999 45.8355L123.333 45.0716H125.72L121.041 50.1326L120.993 51.183H126.198L126.532 49.4164C126.341 49.3687 126.15 49.3687 126.007 49.3687C125.863 49.3687 125.672 49.3687 125.529 49.4164L125.195 50.1804H122.521L127.2 45.1194L127.248 44.069H122.33L121.996 45.8355Z" fill="#E2173D"/>
<path d="M132.787 49.8462C132.787 49.7507 132.787 49.6074 132.834 49.5597L133.837 43.9735C133.694 43.9257 133.55 43.9257 133.407 43.9257C133.121 43.9257 132.834 43.9735 132.643 44.069C132.214 43.9257 131.641 43.878 131.259 43.878C129.54 43.878 128.394 44.7851 127.869 46.8382C127.726 47.3157 127.63 48.0318 127.63 48.7003C127.63 50.4668 128.585 51.3263 129.826 51.3263C130.447 51.3263 131.02 51.1353 131.641 50.5146H131.688C131.879 51.0875 132.405 51.3263 132.978 51.3263C133.55 51.3263 133.885 51.0875 133.98 50.5146L134.028 50.1804H133.264C132.93 50.1804 132.787 50.0849 132.787 49.8462ZM131.593 49.7507C131.115 50.0849 130.686 50.2281 130.208 50.2281C129.349 50.2281 128.824 49.7507 128.824 48.6525C128.824 48.1273 128.919 47.4111 129.062 46.8859C129.492 45.4058 130.256 45.0239 131.068 45.0239C131.402 45.0239 131.975 45.1194 132.357 45.2149L131.593 49.7507Z" fill="#E2173D"/>
</svg>
