<svg width="64" height="60" viewBox="0 0 64 60" fill="none" xmlns="http://www.w3.org/2000/svg">
<path d="M62.6062 25.9035C61.2751 20.9118 58.9826 16.1789 55.8767 12.1855L32.2122 31.7086L30.9921 32.707L37.8326 0.649096C33.0997 -0.349246 27.8121 -0.238319 22.0809 1.27768C2.59475 6.49125 -2.54486 20.579 1.07875 34.0751C2.63173 39.8063 5.4049 45.2048 9.28735 49.5679C9.2134 48.1628 9.62013 46.0182 12.2454 44.7241L12.4303 44.9459C12.4303 44.9459 11.4689 45.8703 12.6152 50.1225C13.3177 52.7478 14.0942 53.8571 14.5749 54.3377C16.8304 55.9277 20.0103 57.7765 23.9297 58.8857C29.1433 60.3648 35.0964 60.4387 41.641 58.7009C61.0902 53.4873 66.2299 39.3996 62.6062 25.9035ZM58.0213 32.707C58.3171 34.223 58.6498 35.4802 58.6498 35.4802L58.1692 35.739C58.1692 35.739 56.912 33.5204 54.8783 33.4095C54.8783 33.4465 56.5053 32.5961 58.0213 32.707ZM19.8624 38.1424L21.933 39.3256C21.4893 39.6954 20.7498 41.3963 20.7498 41.3963L18.6792 40.213C18.975 39.8433 19.8624 38.1424 19.8624 38.1424ZM16.2388 54.6335C16.2388 54.6335 16.3127 52.8587 15.3514 49.383L14.2791 45.3896C14.2791 45.3896 13.4656 41.8769 12.1345 40.8786C13.5765 40.213 15.3883 39.0668 15.3883 39.0668L15.832 39.2147C15.832 39.2147 16.7934 43.356 17.1632 44.6131L18.2355 48.6065C18.2355 48.6065 19.1598 52.1192 19.6405 53.3024C18.901 53.5243 16.2388 54.6335 16.2388 54.6335ZM22.0809 52.9327C22.0809 52.9327 22.0439 51.3427 21.1196 47.83C21.1196 47.83 20.38 44.5392 19.0489 43.5778C20.491 42.9123 22.3028 41.766 22.3028 41.766L22.7465 41.9139C22.7465 41.9139 23.6709 45.8333 24.0037 47.0535C24.0037 47.0535 25.1129 51.1578 25.8524 51.8973C24.7801 52.0452 22.0809 52.9327 22.0809 52.9327ZM27.9601 51.3427C27.9601 51.3427 27.9231 49.7528 26.9987 46.2401C26.9987 46.2401 26.2592 42.9492 24.928 41.9879C26.3701 41.3223 28.1819 40.1761 28.1819 40.1761L28.6256 40.324C28.6256 40.324 29.55 44.2434 29.8828 45.4636C29.8828 45.4636 31.103 49.5679 31.8425 50.3074C30.7702 50.4553 27.9601 51.3427 27.9601 51.3427ZM33.2106 49.9376C33.2106 49.9376 33.1736 48.3477 32.2492 44.835C32.2492 44.835 31.8055 43.2081 31.6206 42.4686C31.4358 41.729 30.7702 40.8046 29.6979 40.8416C29.6979 40.8416 32.545 37.7357 34.061 40.6198C34.061 40.6198 34.2829 40.9156 35.1333 44.0955C35.1333 44.0955 36.2426 48.1998 36.9821 48.9393C35.9098 49.0872 33.2106 49.9376 33.2106 49.9376ZM38.2023 48.6065C38.2023 48.6065 38.1653 47.0166 37.2409 43.5039C37.2409 43.5039 36.7972 41.8769 36.6124 41.1374C36.4275 40.3979 35.7619 39.4735 34.6896 39.5105C34.6896 39.5105 37.5367 36.4045 39.0527 39.2887C39.0527 39.2887 39.2746 39.5845 40.125 42.7644C40.125 42.7644 41.2343 46.8687 41.9738 47.6082C41.9368 47.6082 39.1637 48.1998 38.2023 48.6065ZM47.2244 46.314C42.6024 46.6098 41.715 42.2837 41.715 42.2837C41.715 42.2837 40.3099 38.1054 44.4512 36.0718L44.6361 36.2936C44.6361 36.2936 43.6747 37.218 44.8209 41.4702C45.9672 45.7224 47.2613 46.0552 47.2613 46.0552L47.2244 46.314ZM48.4446 45.9812L48.2597 45.7594C48.2597 45.7594 49.2211 44.835 48.0748 40.5828C46.9286 36.3306 45.6344 35.9978 45.6344 35.9978L45.7084 35.702C50.3303 35.4062 51.2177 39.7324 51.2177 39.7324C51.2177 39.7324 52.5858 43.9476 48.4446 45.9812ZM50.0715 35.739C49.8866 35.5911 49.7387 35.4802 49.5169 35.3692C49.5169 35.3692 50.3673 34.223 49.4059 31.5238L51.9942 31.7456C51.9942 33.9642 50.4043 35.4802 50.0715 35.739ZM53.9909 44.0955L53.2144 40.1391L53.5472 39.9172C53.5472 39.9172 54.7304 42.8013 57.4296 43.4299C57.4296 43.4669 55.2851 44.4283 53.9909 44.0955ZM58.6868 42.7274C58.6868 42.7274 58.8347 39.9912 56.0616 39.3996C52.8077 38.734 52.4749 37.5508 52.401 37.181C51.9203 34.8885 54.0649 33.8532 54.2867 33.7423C54.2867 33.7423 53.6212 35.776 55.5439 36.4785C57.4666 37.181 59.7221 37.1071 60.3138 38.808C60.9054 40.5088 59.8331 41.9879 58.6868 42.7274Z" fill="white"/>
</svg>
