<svg width="27" height="24" viewBox="0 0 27 24" fill="none" xmlns="http://www.w3.org/2000/svg">
<path d="M20.6297 2.08335C18.9529 1.11794 17.1066 0.454513 15.222 0.162035H15.2196C14.7706 0.0930772 14.3191 0.0431419 13.8653 0.0146075C13.8701 0.0193632 13.8772 0.0264968 13.882 0.0312526C12.5588 -0.0472171 10.5213 -0.0234384 9.04043 0.651877C8.39552 0.865885 7.7124 1.14885 7.02927 1.52218C5.11843 2.59222 3.39152 4.25197 2.02527 6.60844C-2.04721 13.6327 0.50615 19.0899 5.39551 21.9005C11.4075 25.3579 19.5787 24.9989 23.9999 17.3754C28.0748 10.3536 25.5214 4.894 20.6297 2.08335ZM20.2188 8.50836C20.226 8.65816 20.2284 8.81035 20.2284 8.96253C20.2284 13.6041 16.679 18.9567 10.1893 18.9567C8.19727 18.9567 6.34137 18.3741 4.78165 17.3778C5.05872 17.4111 5.33818 17.4277 5.62242 17.4277C7.27529 17.4277 8.7968 16.8666 10.0054 15.9249C8.4624 15.8964 7.15825 14.881 6.70921 13.4852C6.92418 13.5257 7.14631 13.5471 7.37322 13.5471C7.69568 13.5471 8.00619 13.5043 8.30237 13.4234C6.68771 13.1 5.47194 11.6804 5.47194 9.98026C5.47194 9.96599 5.47194 9.95173 5.47194 9.93508C5.94726 10.199 6.49185 10.356 7.06988 10.375C6.12401 9.74485 5.5006 8.67005 5.5006 7.45258C5.5006 6.80818 5.67497 6.2042 5.97831 5.68583C7.71956 7.81164 10.3183 9.20983 13.2514 9.35488C13.1917 9.09807 13.1607 8.82937 13.1607 8.55354C13.1607 6.6132 14.7395 5.04142 16.6886 5.04142C17.7037 5.04142 18.6209 5.46706 19.2634 6.14951C20.0684 5.99257 20.8231 5.70009 21.5039 5.29823C21.2411 6.1186 20.6798 6.8058 19.9513 7.24095C20.6655 7.15535 21.3438 6.9675 21.9768 6.68691C21.5063 7.39552 20.9091 8.01376 20.2188 8.50836Z" fill="white"/>
</svg>
