<svg width="26" height="24" viewBox="0 0 26 24" fill="none" xmlns="http://www.w3.org/2000/svg">
<path d="M20.5374 2.08335C18.8682 1.11794 17.0301 0.454513 15.1539 0.162035C15.1539 0.162035 15.1516 0.162035 15.1492 0.162035C14.7021 0.0930772 14.2527 0.0431419 13.8009 0.0146075C13.8057 0.0193632 13.8128 0.0264968 13.8176 0.0312526C12.5026 -0.0472171 10.4743 -0.0234384 9.00002 0.651877C8.35799 0.865885 7.67792 1.14885 6.99547 1.52218C5.09555 2.59222 3.37635 4.25197 2.01621 6.60844C-2.03806 13.6327 0.503887 19.0899 5.37139 21.9005C11.3589 25.3579 19.4912 24.9989 23.8926 17.3754C27.9493 10.3536 25.4073 4.894 20.5374 2.08335ZM9.07373 3.68128C9.99634 2.95603 11.7702 2.74916 12.5026 2.88945C13.2326 3.02975 13.6155 3.43874 13.6202 3.93809L13.663 10.287C13.6654 10.7864 13.4086 11.2429 13.0876 11.3047C12.7666 11.3642 12.2934 11.0693 12.0318 10.6437L8.70041 5.20074C8.44122 4.7751 7.92046 4.58725 9.07373 3.68128ZM6.82189 15.0047C6.73866 14.4958 6.82189 12.0324 6.82189 12.0324C6.96218 11.3238 7.49482 10.8934 7.95613 11.0741L11.4968 12.4794C11.9581 12.6625 12.2981 13.1381 12.2529 13.5376C12.2054 13.937 11.7869 14.3983 11.3208 14.5648L7.96802 15.7514C7.49958 15.9178 6.90749 15.5136 6.82189 15.0047ZM13.7415 20.2883C13.732 20.7877 12.9116 21.2894 12.4455 21.1182L9.99872 20.2693C9.53504 20.1005 9.37572 19.204 9.69435 18.8236L12.0342 16.0177C12.3528 15.6372 12.8878 15.3495 13.2231 15.3828C13.5584 15.4137 13.8271 15.8441 13.8176 16.3458L13.7415 20.2883ZM20.2331 17.0164C20.0286 17.6346 18.9134 19.2801 18.9134 19.2801C18.6494 19.7034 17.6911 19.7795 17.4533 19.3419L15.6034 15.9535C15.3632 15.5183 15.318 15.0332 15.5011 14.8811C15.6842 14.7265 16.224 14.7122 16.6996 14.8501L19.6339 15.6943C20.1047 15.8274 20.4376 16.3958 20.2331 17.0164ZM19.8693 12.2297L16.5997 12.8361C16.117 12.9455 15.5463 12.7457 15.3347 12.3914C15.1207 12.0395 15.2063 11.4379 15.5273 11.0574L17.4177 8.80559C17.7363 8.42751 18.3046 8.37282 18.8016 8.80321C19.2986 9.23361 20.2141 10.4963 20.3472 10.9267C20.478 11.357 20.4566 12.0894 19.8693 12.2297Z" fill="white"/>
</svg>
